<svg width="160" height="40" fill="none" xmlns="http://www.w3.org/2000/svg"><g clip-path="url('#clip0_116:115')" fill="#754BDE"><path d="M9.872 25.112a10.097 10.097 0 0 0-3.725-.595H4.61c-.542 0-1.073.022-1.592.065l-1.194.091a.217.217 0 0 0-.137.072.224.224 0 0 0-.056.146v2.785a.216.216 0 0 0 .067.157.21.21 0 0 0 .16.056c.428-.03.929-.056 1.468-.078.634-.026 1.259-.052 1.884-.07a59.09 59.09 0 0 1 1.605-.026 2.532 2.532 0 0 1 1.897.626c.443.524.663 1.206.612 1.895v.139H6.357a9.903 9.903 0 0 0-3.352.512 4.739 4.739 0 0 0-2.217 1.547A4.273 4.273 0 0 0 0 35.094a4.735 4.735 0 0 0 .655 2.546A4.275 4.275 0 0 0 2.5 39.27a6.34 6.34 0 0 0 2.765.57 5.497 5.497 0 0 0 2.569-.557 4.052 4.052 0 0 0 1.657-1.612c.178-.332.322-.681.428-1.043v2.607c0 .056.022.11.061.15.04.04.093.063.149.063h2.517a.208.208 0 0 0 .148-.062.215.215 0 0 0 .061-.15V30.31a6.418 6.418 0 0 0-.761-3.333 4.434 4.434 0 0 0-2.222-1.865Zm-.548 8.896a3.829 3.829 0 0 1-.493 1.885c-.259.43-.641.77-1.095.974a3.52 3.52 0 0 1-1.43.287c-.71.049-1.411-.175-1.965-.626a2.11 2.11 0 0 1-.68-1.625 2.167 2.167 0 0 1 .68-1.643 2.785 2.785 0 0 1 1.965-.634h3.018v1.382Zm20.664-7.579a6.275 6.275 0 0 0-2.11-1.59 6.412 6.412 0 0 0-2.723-.57 6.036 6.036 0 0 0-3.023.76 5.347 5.347 0 0 0-2.029 2.113v-7.266a.216.216 0 0 0-.063-.152.211.211 0 0 0-.15-.06H16.6a.208.208 0 0 0-.148.061.215.215 0 0 0-.061.151v19.368c0 .056.022.11.061.15.04.04.093.063.148.063h2.518a.209.209 0 0 0 .148-.063.215.215 0 0 0 .061-.15V36.25c.086.226.184.446.296.66a5.37 5.37 0 0 0 2.14 2.264 6.302 6.302 0 0 0 3.15.774 6.76 6.76 0 0 0 2.848-.583 6.426 6.426 0 0 0 2.179-1.63 7.32 7.32 0 0 0 1.387-2.428 8.985 8.985 0 0 0 .483-2.981v-.57a8.995 8.995 0 0 0-.47-2.954 7.012 7.012 0 0 0-1.353-2.373Zm-2.406 8.065a4.103 4.103 0 0 1-1.4 1.669 3.62 3.62 0 0 1-2.098.613 4.229 4.229 0 0 1-1.977-.492 3.997 3.997 0 0 1-1.52-1.381 3.85 3.85 0 0 1-.59-2.173v-1.086a4.326 4.326 0 0 1 .573-2.277 3.83 3.83 0 0 1 1.498-1.439 4.228 4.228 0 0 1 2.016-.486 3.677 3.677 0 0 1 2.07.552c.622.387 1.119.95 1.428 1.62a5.41 5.41 0 0 1 .51 2.442 5.506 5.506 0 0 1-.51 2.438ZM53.627 20.59H50.58a.208.208 0 0 0-.198.13.216.216 0 0 0-.016.083v3.745H48.17a.207.207 0 0 0-.198.13.216.216 0 0 0-.016.083v2.751a.216.216 0 0 0 .132.198c.026.01.054.015.082.015h2.192v6.205a7.647 7.647 0 0 0 .638 3.407 3.667 3.667 0 0 0 1.939 1.786 8.829 8.829 0 0 0 3.3.53h1.683c.056 0 .11-.022.15-.062a.219.219 0 0 0 .064-.15v-2.8a.22.22 0 0 0-.063-.153.213.213 0 0 0-.151-.063h-1.87a1.955 1.955 0 0 1-1.642-.581 2.04 2.04 0 0 1-.56-1.67V27.72h4.072a.219.219 0 0 0 .214-.213v-2.751a.22.22 0 0 0-.064-.15.212.212 0 0 0-.15-.063h-4.097v-3.746a.214.214 0 0 0-.057-.146.208.208 0 0 0-.14-.067v.005Zm26.739 4.523a10.105 10.105 0 0 0-3.729-.595H75.1c-.543 0-1.07.03-1.588.065l-1.194.091a.217.217 0 0 0-.14.07.224.224 0 0 0-.057.148v2.785a.22.22 0 0 0 .069.156.212.212 0 0 0 .158.057c.428-.03.933-.056 1.472-.078.634-.026 1.259-.052 1.884-.07a59.072 59.072 0 0 1 1.601-.026 2.532 2.532 0 0 1 1.896.626 2.58 2.58 0 0 1 .617 1.895v.139H76.85a9.885 9.885 0 0 0-3.352.512 4.708 4.708 0 0 0-2.217 1.547 4.247 4.247 0 0 0-.788 2.66 4.735 4.735 0 0 0 .655 2.546 4.301 4.301 0 0 0 1.84 1.63c.87.394 1.814.589 2.766.57a5.497 5.497 0 0 0 2.569-.557 4.052 4.052 0 0 0 1.657-1.612 5.42 5.42 0 0 0 .428-1.043v2.607a.219.219 0 0 0 .064.15c.04.04.094.063.15.063h2.513a.207.207 0 0 0 .197-.13.216.216 0 0 0 .017-.083V30.31a6.418 6.418 0 0 0-.762-3.333 4.434 4.434 0 0 0-2.222-1.865Zm-.548 8.896a3.828 3.828 0 0 1-.492 1.885c-.26.43-.643.769-1.096.974a3.548 3.548 0 0 1-1.43.287c-.71.049-1.41-.175-1.965-.626a2.11 2.11 0 0 1-.68-1.625 2.137 2.137 0 0 1 .68-1.642 2.785 2.785 0 0 1 1.965-.635h3.018v1.382Zm16.456 1.381c-.278.42-.66.757-1.109.978a3.623 3.623 0 0 1-1.657.352 3.477 3.477 0 0 1-2.097-.595 3.473 3.473 0 0 1-1.199-1.656 7.382 7.382 0 0 1 0-4.78 3.616 3.616 0 0 1 1.216-1.642 3.388 3.388 0 0 1 2.046-.596 3.138 3.138 0 0 1 2.23.76 2.96 2.96 0 0 1 .925 1.739.208.208 0 0 0 .205.178h3.224a.22.22 0 0 0 .158-.072.213.213 0 0 0 .045-.078.208.208 0 0 0 .011-.089 6.043 6.043 0 0 0-.984-2.855 6.096 6.096 0 0 0-2.39-2.073 8.2 8.2 0 0 0-6.587-.108c-.88.397-1.669.98-2.312 1.707a7.177 7.177 0 0 0-1.4 2.438 8.811 8.811 0 0 0-.471 2.864v.517c.001.94.156 1.874.458 2.764a7.266 7.266 0 0 0 1.374 2.442 6.78 6.78 0 0 0 2.3 1.738 8.324 8.324 0 0 0 6.703-.109 6.349 6.349 0 0 0 2.432-2.099 5.992 5.992 0 0 0 1.01-2.894.209.209 0 0 0-.052-.167.203.203 0 0 0-.158-.072h-3.198a.208.208 0 0 0-.135.047.213.213 0 0 0-.075.123c-.079.445-.251.867-.505 1.238h-.008Zm29.333-8.404a4.436 4.436 0 0 0-2.243-1.873 10.109 10.109 0 0 0-3.729-.595h-1.533c-.545 0-1.076.022-1.592.065l-1.195.091a.219.219 0 0 0-.192.217v2.786c0 .03.006.058.017.085.011.027.028.05.049.07a.208.208 0 0 0 .156.058c.428-.03.934-.056 1.473-.078.634-.026 1.259-.052 1.884-.07a59.078 59.078 0 0 1 1.601-.026 2.536 2.536 0 0 1 1.9.626c.444.524.664 1.206.613 1.895v.139h-2.967a9.904 9.904 0 0 0-3.352.512 4.712 4.712 0 0 0-2.218 1.547 4.251 4.251 0 0 0-.787 2.66 4.734 4.734 0 0 0 .655 2.546 4.295 4.295 0 0 0 1.841 1.63 6.37 6.37 0 0 0 2.765.57 5.5 5.5 0 0 0 2.569-.557 4.052 4.052 0 0 0 1.656-1.612c.177-.332.32-.682.428-1.043v2.607c0 .056.023.11.062.15.039.04.093.063.148.063h2.556a.213.213 0 0 0 .21-.213V30.31a6.427 6.427 0 0 0-.767-3.325h-.008Zm-2.791 7.023a3.827 3.827 0 0 1-.493 1.885c-.259.43-.641.77-1.096.974a3.515 3.515 0 0 1-1.429.287 2.8 2.8 0 0 1-1.965-.626 2.085 2.085 0 0 1-.681-1.625 2.152 2.152 0 0 1 .681-1.643 2.784 2.784 0 0 1 1.965-.634h3.018v1.382Zm-61.218-8.452a3.646 3.646 0 0 0-.47 1.968v11.733a.216.216 0 0 0 .06.15.211.211 0 0 0 .15.063h3.291a.208.208 0 0 0 .148-.063.215.215 0 0 0 .062-.15V27.72h4.088c.056 0 .11-.023.15-.063a.22.22 0 0 0 .064-.15v-2.751a.22.22 0 0 0-.064-.15.212.212 0 0 0-.15-.063H64.12c-1.25 0-2.137.365-2.496 1.013h-.026Zm45.554-4.972h-3.027a.212.212 0 0 0-.21.213v3.746h-2.2a.212.212 0 0 0-.21.213v2.75a.213.213 0 0 0 .21.214h2.196v6.205a7.646 7.646 0 0 0 .638 3.407 3.665 3.665 0 0 0 1.939 1.786 8.816 8.816 0 0 0 3.301.53h1.682a.212.212 0 0 0 .21-.213v-2.799a.233.233 0 0 0-.015-.082.214.214 0 0 0-.195-.135H109.6a1.974 1.974 0 0 1-1.641-.58 2.038 2.038 0 0 1-.559-1.67v-6.45h4.071a.213.213 0 0 0 .21-.213v-2.75a.212.212 0 0 0-.21-.213H107.4v-3.746a.208.208 0 0 0-.138-.2.21.21 0 0 0-.085-.013h-.025Zm-64.886 10.32c-.33-.077-.681-.143-1.058-.2-2.834-.39-3.724-1.038-3.66-2.02.064-.982.856-1.369 2.997-1.303 1.554.1 3.1.308 4.627.621a.212.212 0 0 0 .228-.122.22.22 0 0 0 .02-.09v-2.83a.209.209 0 0 0-.175-.213 34.948 34.948 0 0 0-5.587-.512c-3.977 0-5.903 1.655-5.856 4.836.034 2.325 1.13 3.854 5.68 4.589 2.65.434 3.49.821 3.507 1.799 0 1.112-.899 1.386-3.1 1.386a31.184 31.184 0 0 1-5.44-.721.21.21 0 0 0-.179.044.217.217 0 0 0-.078.169v2.92c0 .05.017.099.048.137a.213.213 0 0 0 .123.076c1.81.33 3.645.51 5.484.534 4.52 0 6.944-1.569 6.896-4.932-.017-1.599-.98-3.35-4.477-4.167ZM153.698 15.996h-2.628c-.975 0-1.91-.393-2.599-1.092a3.76 3.76 0 0 1-1.079-2.637V8a8.085 8.085 0 0 0-1.325-4.445 7.906 7.906 0 0 0-3.535-2.948 7.773 7.773 0 0 0-4.553-.459 7.843 7.843 0 0 0-4.036 2.186 8.034 8.034 0 0 0-2.16 4.094 8.108 8.108 0 0 0 .444 4.622 7.976 7.976 0 0 0 2.899 3.593 7.798 7.798 0 0 0 4.377 1.353h4.221c.975 0 1.91.393 2.6 1.093.689.7 1.077 1.65 1.077 2.64v5.34a3.758 3.758 0 0 1-1.071 2.636 3.648 3.648 0 0 1-2.594 1.097h-4.747a2.078 2.078 0 0 0-1.486.625 2.154 2.154 0 0 0-.616 1.509v6.396a2.154 2.154 0 0 0 .616 1.508 2.095 2.095 0 0 0 1.486.625h6.301c.558 0 1.092-.224 1.487-.625.394-.4.615-.942.615-1.508v-4.797c0-.99.388-1.94 1.077-2.64a3.65 3.65 0 0 1 2.601-1.093h2.628a6.26 6.26 0 0 0 4.352-1.932 6.449 6.449 0 0 0 1.79-4.467 6.449 6.449 0 0 0-1.79-4.467 6.26 6.26 0 0 0-4.352-1.932v-.008Z"/></g><defs><clipPath id="clip0_116:115"><path fill="#fff" d="M0 0h160v40H0z"/></clipPath></defs></svg>